HIERARCHY
ROOT Pelvis
{
	OFFSET 0.000000 0.000000 0.000000
	CHANNELS 6 Xposition Yposition Zposition Zrotation Yrotation Xrotation 
	JOINT Left_hip
	{
		OFFSET 0.070241 -0.085575 -0.010474
		CHANNELS 3 Zrotation Yrotation Xrotation
		JOINT Left_knee
		{
			OFFSET 0.032125 -0.356873 -0.000555
			CHANNELS 3 Zrotation Yrotation Xrotation
			JOINT Left_ankle
			{
				OFFSET -0.010961 -0.370212 -0.042278
				CHANNELS 3 Zrotation Yrotation Xrotation
				JOINT Left_foot
				{
					OFFSET 0.023322 -0.052281 0.110104
					CHANNELS 3 Zrotation Yrotation Xrotation
					End Site
					{
						OFFSET 0.000000 0.000000 0.000000
					}
				}
			}
		}
	}
	JOINT Right_hip
	{
		OFFSET -0.068518 -0.084320 -0.007402
		CHANNELS 3 Zrotation Yrotation Xrotation
		JOINT Right_knee
		{
			OFFSET -0.037345 -0.364815 -0.003619
			CHANNELS 3 Zrotation Yrotation Xrotation
			JOINT Right_ankle
			{
				OFFSET 0.013394 -0.370006 -0.039954
				CHANNELS 3 Zrotation Yrotation Xrotation
				JOINT Right_foot
				{
					OFFSET -0.019600 -0.045455 0.113223
					CHANNELS 3 Zrotation Yrotation Xrotation
					End Site
					{
						OFFSET 0.000000 0.000000 0.000000
					}
				}
			}
		}
	}
	JOINT Spine1
	{
		OFFSET -0.002404 0.098129 -0.018169
		CHANNELS 3 Zrotation Yrotation Xrotation
		JOINT Spine2
		{
			OFFSET 0.003989 0.127209 -0.001742
			CHANNELS 3 Zrotation Yrotation Xrotation
			JOINT Spine3
			{
				OFFSET 0.001758 0.046641 0.023475
				CHANNELS 3 Zrotation Yrotation Xrotation
				JOINT Neck
				{
					OFFSET -0.003759 0.194901 -0.039982
					CHANNELS 3 Zrotation Yrotation Xrotation
					JOINT Head
					{
						OFFSET 0.003999 0.063756 0.047665
						CHANNELS 3 Zrotation Yrotation Xrotation
						End Site
						{
							OFFSET 0.000000 0.000000 0.000000
						}
					}
				}
				JOINT Left_collar
				{
					OFFSET 0.071816 0.109048 -0.028973
					CHANNELS 3 Zrotation Yrotation Xrotation
					JOINT Left_shoulder
					{
						OFFSET 0.084027 0.032269 -0.006525
						CHANNELS 3 Zrotation Yrotation Xrotation
						JOINT Left_elbow
						{
							OFFSET 0.243854 -0.013992 -0.025905
							CHANNELS 3 Zrotation Yrotation Xrotation
							JOINT Left_wrist
							{
								OFFSET 0.232156 0.008196 -0.000339
								CHANNELS 3 Zrotation Yrotation Xrotation
								JOINT Left_palm
								{
									OFFSET 0.075377 -0.009461 -0.012494
									CHANNELS 3 Zrotation Yrotation Xrotation
									End Site
									{
										OFFSET 0.000000 0.000000 0.000000
									}
								}
							}
						}
					}
				}
				JOINT Right_collar
				{
					OFFSET -0.073768 0.107001 -0.033755
					CHANNELS 3 Zrotation Yrotation Xrotation
					JOINT Right_shoulder
					{
						OFFSET -0.086837 0.032868 -0.009431
						CHANNELS 3 Zrotation Yrotation Xrotation
						JOINT Right_elbow
						{
							OFFSET -0.236446 -0.012544 -0.018747
							CHANNELS 3 Zrotation Yrotation Xrotation
							JOINT Right_wrist
							{
								OFFSET -0.236110 0.006124 -0.004327
								CHANNELS 3 Zrotation Yrotation Xrotation
								JOINT Right_palm
								{
									OFFSET -0.074800 -0.006875 -0.009610
									CHANNELS 3 Zrotation Yrotation Xrotation
									End Site
									{
										OFFSET 0.000000 0.000000 0.000000
									}
								}
							}
						}
					}
				}
			}
		}
	}
}
MOTION
Frames: 15
Frame Time: 0.100000
0.053193 0.258672 -0.283491 175.446208 29.326948 -15.271122 9.052240 -3.100006 -59.611313 -5.757605 6.586404 57.867568 10.638724 9.334530 -4.802941 -17.633687 13.729749 -19.645321 -4.070992 1.029273 -58.488278 0.563740 -7.932945 55.010475 19.023608 -10.854682 1.509333 -41.601064 -3.717445 -10.143493 3.217255 -2.580089 48.383360 -4.887873 -6.057001 -20.739662 5.419479 3.097394 11.451817 -32.268448 16.892588 -7.864047 6.806548 13.434557 -38.694971 36.349711 -46.247556 -30.670750 -94.601134 -28.084638 20.201193 13.395704 13.659214 0.624728 37.692870 -1.813879 -16.400815 7.729335 7.545521 12.029983 -35.631707 40.653217 -18.965265 89.774402 18.488451 14.102583 -10.464368 26.974517 25.489024 -50.179082 9.416081 -5.185580 9.468084 -3.081788 2.060168 
0.053805 0.259932 -0.284480 174.956165 28.902611 -15.449783 9.151486 -2.778826 -58.783200 -4.222597 5.424051 52.533476 5.683202 7.334365 13.838209 -13.913303 12.800325 -25.138658 -3.429768 1.495801 -58.639482 0.488859 -7.816486 54.732219 19.127773 -12.008437 1.798721 -45.942032 -3.881508 -11.614816 3.629666 -3.143392 49.242132 -5.660889 -6.303390 -21.062723 5.627449 3.002517 11.836626 -33.166784 15.069390 -9.130778 8.080555 14.389795 -39.168569 36.253490 -46.208845 -30.483379 -93.838460 -27.788032 19.030352 13.398747 13.008756 1.855023 39.359342 -1.169273 -16.529990 6.090962 6.404633 13.281739 -36.064917 40.098718 -19.429178 90.008085 18.546900 14.359425 -10.515766 28.206735 24.437852 -50.477032 10.090539 -3.940603 10.552782 -1.959525 0.506487 
0.054947 0.258670 -0.284442 174.880085 28.666252 -14.919262 9.334285 -3.098355 -59.117810 -3.414214 5.419336 52.253807 6.134755 7.055838 13.879158 -14.940047 13.141649 -24.799226 -3.264274 1.648180 -59.041684 0.440765 -7.929211 54.341204 18.921204 -11.761692 2.146218 -45.134751 -3.919122 -11.268193 3.367328 -2.851355 49.132444 -5.612280 -6.243922 -21.003376 5.700318 3.010451 11.579557 -33.081030 15.474199 -8.716822 8.344370 14.140064 -38.640633 37.240151 -46.423623 -31.340825 -94.016598 -27.728141 19.784637 12.742171 13.078725 1.827224 39.405194 -1.035576 -17.594512 6.175827 6.556209 13.337013 -36.486473 40.289320 -19.591422 89.883301 18.186836 14.634072 -10.365471 28.478119 24.259626 -50.909277 9.775798 -4.946186 10.794566 -2.089950 0.331463 
0.054368 0.257867 -0.282704 174.681426 28.643613 -14.944977 9.467250 -3.450915 -59.340198 -3.452701 5.002827 52.551227 6.092137 7.338927 14.119836 -14.665768 13.139829 -24.768656 -3.182016 1.574552 -59.000431 0.525495 -8.095200 54.380925 18.720222 -11.759760 2.041843 -44.909838 -3.930171 -11.281343 3.293229 -2.639003 48.899125 -5.561985 -6.181455 -20.710514 5.732556 3.058300 11.404227 -32.631516 15.437243 -8.489304 8.816508 14.367474 -38.302952 36.547531 -46.465865 -30.967853 -93.749685 -27.842620 20.097783 12.345609 12.696795 2.308510 40.019858 -1.274580 -17.373174 6.028956 6.575540 13.357529 -36.009740 40.233786 -19.296698 89.518961 18.198946 14.401791 -10.019171 28.205302 23.837831 -51.302996 9.911511 -5.215065 10.909424 -2.033030 0.486108 
0.054168 0.258354 -0.282078 174.527256 28.697436 -15.079941 9.585608 -3.389184 -59.420365 -3.342242 5.140207 52.919037 6.104377 7.257806 13.649247 -14.599408 13.341923 -24.506640 -3.142824 1.703156 -59.083443 0.450175 -8.185199 54.716906 18.406261 -11.554285 1.860312 -44.238566 -3.954516 -11.003168 3.262265 -2.456598 48.881554 -5.491035 -5.996786 -20.414020 5.788375 3.047544 11.089731 -32.204087 15.705889 -8.543018 8.901744 14.003011 -38.291064 35.871705 -46.356843 -30.718768 -93.370844 -27.788672 20.270373 12.148681 12.469986 2.012074 39.773871 -1.747350 -17.382731 5.787452 6.499860 13.040604 -35.100806 40.058885 -18.652841 88.619338 17.325493 13.873147 -9.720612 29.739955 23.630174 -50.907606 10.161055 -5.774655 11.137874 -1.964899 0.424361 
0.052916 0.257483 -0.282450 173.809369 29.499160 -15.302533 9.936816 -3.556605 -59.942428 -2.945832 5.688240 53.430217 5.296688 5.930991 12.825579 -13.442347 14.669315 -22.913018 -3.673172 1.701846 -59.166367 0.059146 -9.113746 55.147545 16.305939 -9.916072 1.557274 -39.700533 -3.644624 -8.207257 4.339901 -1.466901 47.985351 -4.154011 -4.527908 -17.393449 6.418522 3.034370 8.563038 -30.494953 15.515148 -8.362573 8.255019 9.686009 -35.416257 29.014617 -47.295726 -27.773294 -91.910730 -26.159840 23.054786 13.640375 8.011196 3.967430 38.015077 -5.578717 -15.996959 2.773379 4.795481 9.807821 -25.395653 38.978461 -13.287010 80.756069 8.370254 9.353763 -8.686409 44.371038 20.227547 -46.532681 12.460966 -9.432402 14.665602 -0.109260 -2.269478 
0.048414 0.254579 -0.282332 174.355065 29.397148 -15.136849 9.739176 -3.566419 -59.823619 -2.674186 6.400703 53.574028 5.352249 5.766778 13.020898 -12.685549 13.788610 -23.357776 -4.346521 1.964192 -59.476849 0.588588 -8.577762 56.611977 15.591133 -9.875214 0.013402 -38.162756 -0.920987 -6.531560 5.153875 -0.848371 46.509730 -2.921370 -3.016263 -12.972372 6.186163 3.437623 6.705909 -27.598610 10.688590 -7.838316 8.690359 5.807701 -30.440496 20.733195 -43.666020 -19.060495 -86.748607 -19.013804 22.694002 15.746653 -20.040629 11.447545 35.181672 -5.042344 -20.824607 -3.278656 2.425352 4.093526 -17.936610 36.081487 -7.801619 75.928566 5.070624 7.658663 -16.778856 58.478522 7.444818 -45.606780 8.260396 -20.398641 18.811738 1.660019 -4.396965 
0.048685 0.255645 -0.283170 174.794828 28.715703 -13.693405 10.678850 -2.672216 -61.906388 -2.285956 7.908472 54.920810 3.791093 5.429205 13.580969 -8.041069 13.949488 -22.602012 -5.185879 2.800277 -61.761404 1.069720 -8.177121 61.114360 14.475417 -7.423217 -0.306400 -36.126438 -0.514029 -6.669422 4.418013 -0.930740 47.042144 -1.830624 -2.284484 -9.469248 5.050517 3.949438 3.369480 -22.085056 4.360557 -6.894658 10.733425 3.260093 -26.512700 6.811257 -35.199294 -8.811321 -76.547260 -10.307467 20.746775 19.726788 -50.511182 13.150443 39.291933 -6.607105 -26.056425 -7.233386 0.769651 3.825724 -6.663660 32.678314 -3.011930 67.770086 11.080162 7.980797 -53.726754 73.736824 -29.046315 -51.567167 10.336329 -21.491748 19.253578 0.898865 -2.393257 
0.048696 0.260188 -0.285229 175.271835 29.643063 -12.966828 11.090147 -2.388069 -64.833817 -3.010438 9.135468 59.066804 -0.815146 5.588753 14.629654 3.035724 14.212804 -21.080824 -6.925410 0.942184 -64.088579 0.377670 -9.997523 63.839518 14.181073 -6.148765 3.854901 -38.336130 -2.219276 -10.893525 4.331978 -1.460665 51.467575 -2.157957 -2.159603 -5.430181 3.664959 4.585771 -0.781077 -17.510905 -3.793162 -8.197787 12.903765 1.308411 -24.818007 -5.796204 -29.506703 -5.129471 -68.274492 -14.440157 19.483282 72.936882 -69.360072 -38.553833 43.333795 -8.356172 -22.689344 -11.314603 -2.088972 4.232982 2.146390 32.025045 -1.812732 57.074653 22.176156 6.798279 -123.858899 68.989253 -98.015666 -51.922924 14.911513 -14.572334 17.922590 3.275439 -0.849325 
0.047513 0.258744 -0.285775 175.511262 30.428538 -9.826741 11.232780 -1.453028 -68.612117 -3.107698 10.834236 62.451671 -4.909576 5.657061 13.487630 13.055766 14.479881 -17.212053 -8.131511 -0.265017 -67.756892 -0.385779 -10.947918 64.833364 11.662408 -4.772682 6.534892 -36.396305 -3.895404 -13.733338 4.490453 -1.923382 56.090937 -2.428544 -2.778531 -0.460513 3.111443 4.748264 -7.206476 -15.378036 -8.520622 -11.009430 13.976859 -0.018403 -23.440798 -17.444201 -35.446889 -2.622615 -53.700127 -25.548365 18.363671 126.789850 -59.945951 -89.608123 49.494117 -12.595369 -15.250439 -14.337360 -5.622628 4.176942 10.416683 38.658538 -0.726796 41.541742 31.785860 2.858084 -145.555001 55.749116 -119.134191 -52.951474 19.228098 -8.376425 17.613318 6.524736 -0.516486 
0.048249 0.249193 -0.279442 175.467318 29.586246 -4.612762 11.650236 0.257022 -71.437665 -2.204976 12.384024 59.496131 -5.660757 6.607897 10.526279 15.949740 14.694560 -14.625089 -7.700928 0.605846 -71.319143 -0.551006 -10.727398 62.422947 12.076160 -4.941920 3.852233 -37.972321 -3.893096 -13.944152 3.506209 -1.285024 60.957638 -2.807029 -3.252917 -0.073686 3.849871 4.886425 -8.858064 -15.412226 -8.795797 -14.001306 16.161807 -1.796610 -25.594194 -14.482241 -42.154805 -5.286325 -46.153712 -36.580293 15.410067 143.380034 -50.308984 -101.257515 55.609409 -16.132095 -9.251216 -13.594470 -6.631566 3.510244 9.657192 44.677210 -1.930359 35.588417 37.781624 -0.243876 -157.059645 47.196652 -124.924812 -57.611448 22.666090 -4.551397 16.181578 7.530675 -0.253983 
0.045698 0.239686 -0.271903 174.469137 30.321302 -1.178987 11.853153 0.207063 -74.335541 -0.771882 13.148053 58.252997 -5.466519 8.144976 8.876433 17.889455 15.138972 -12.573815 -7.556217 1.043602 -74.611917 -1.547148 -10.911813 62.056609 12.583017 -5.703389 3.371892 -39.342856 -4.350896 -14.559859 2.931623 -1.046888 66.674618 -2.161247 -3.572513 -0.039191 4.872226 4.736719 -9.285354 -16.320948 -8.165806 -12.819350 18.271669 -2.641435 -29.585808 -8.438150 -44.335664 -9.605205 -42.463335 -45.386151 14.277039 151.970795 -46.061750 -107.212037 60.429482 -17.617993 -9.113360 -13.119730 -6.228086 3.694160 6.132054 45.973826 -5.125169 35.394961 40.024063 1.060950 -163.977961 43.108325 -128.916974 -61.695011 23.179698 -6.983785 15.529315 7.705819 0.460769 
0.041312 0.230610 -0.261775 173.052718 30.111490 2.463758 12.900189 1.162166 -77.980701 1.339253 15.109893 58.332337 -3.008158 6.068294 8.950975 10.522472 18.537987 -12.658557 -7.222478 1.112866 -77.885616 -2.866361 -12.057295 61.999880 15.106579 -4.534563 1.922677 -42.719900 -5.467653 -11.320356 3.043933 -0.765264 70.458314 -1.140984 -3.518754 -2.641643 7.158652 4.154632 -6.837170 -19.550698 -4.684826 -4.691274 18.937392 -3.859606 -36.671936 4.113606 -43.992405 -19.112727 -51.065599 -41.824624 15.460766 158.449777 -42.108507 -108.298213 62.629933 -17.065357 -9.438879 -12.697735 -4.866584 2.091575 -3.600200 46.298798 -10.876480 43.071988 39.112487 3.782667 -166.646892 42.787179 -127.147371 -64.303330 22.355958 -9.273453 16.482073 6.326485 -1.941716 
0.036292 0.225540 -0.255893 173.244508 29.714844 2.093213 12.689642 1.083396 -77.144225 0.551892 14.576313 57.970155 -3.861742 9.375793 7.625109 16.243225 16.420792 -11.004494 -7.152177 1.759991 -77.102370 -2.127026 -11.554922 61.331187 15.133813 -5.867891 1.210865 -44.111885 -5.958723 -13.619743 1.695178 -0.717766 73.562600 -2.398432 -4.110752 -0.238895 5.817234 4.234839 -5.142194 -18.655422 -4.256714 1.133285 20.263489 -0.569193 -34.437837 7.466591 -40.493680 -17.491403 -49.470477 -48.633921 15.454391 158.027466 -44.007414 -109.636747 60.692669 -14.091031 -13.037495 -11.306152 -2.778519 3.080498 -10.875595 43.986043 -14.314037 43.766035 47.634694 5.346714 -164.473918 44.000693 -128.249820 -62.355444 17.741542 -16.144068 13.301900 4.271472 2.078444 
0.034776 0.223609 -0.248687 172.877608 29.863407 3.163292 13.537852 0.826459 -78.655774 0.645289 14.459203 58.875326 -2.951413 8.511908 7.928468 13.271854 17.492193 -11.790294 -7.090784 1.370826 -78.194408 -2.372190 -12.194694 61.971302 16.326016 -5.541000 0.443005 -45.498858 -6.048535 -12.961279 1.585953 0.187589 74.236308 -2.469207 -3.763147 -2.016885 6.180561 4.565505 -3.085377 -18.496757 -2.220856 5.018685 21.712497 -1.011283 -32.973427 15.134136 -39.553534 -21.756796 -56.466627 -51.859890 19.937460 155.903282 -44.036677 -108.284923 64.274457 -11.472246 -17.790393 -10.333811 -1.054395 4.074224 -16.656046 42.453584 -17.078959 48.268255 47.181477 7.213630 -164.399401 43.143494 -127.879258 -66.299996 15.624572 -19.797712 13.064894 3.431078 2.344574 
